<?xml version="1.0" encoding="UTF-8"?>
<svg id="Layer_2" data-name="Layer 2" xmlns="http://www.w3.org/2000/svg" width="14.82" height="15.16" xmlns:xlink="http://www.w3.org/1999/xlink" viewBox="0 0 14.82 15.16">
  <defs>
    <style>
      .cls-1 {
        fill: #000031;
      }

      .cls-1, .cls-2 {
        stroke-width: 0px;
      }

      .cls-2 {
        fill: none;
      }

      .cls-3 {
        clip-path: url(#clippath);
      }
    </style>
    <clipPath id="clippath">
      <path class="cls-2" d="m12.82,0H2C.9,0,0,.89,0,2v11.16c0,1.11.9,2,2,2h10.82c1.1,0,2-.89,2-2V2c0-1.11-.9-2-2-2Zm-.95,12.76c-.04.06-.09.1-.14.11-.06.02-.13.03-.21.05h-1.61c-.08,0-.16-.01-.22-.04-.11-.05-.19-.12-.25-.2-.06-.09-.12-.18-.18-.28-.09-.14-.18-.28-.26-.43-.09-.14-.18-.29-.27-.43l-2.25-3.6c-.14-.23-.27-.45-.41-.66-.13-.22-.27-.44-.41-.67-.05-.07-.11-.16-.17-.26-.07-.11-.16-.16-.27-.16-.08.07-.12.15-.12.24-.01.09-.01.2-.01.34v5.22s0,.11.01.15c0,.05-.01.1-.03.15v.17c0,.16-.02.27-.07.35-.05.05-.12.09-.2.1-.09.01-.19.01-.3.01h-1.15c-.08,0-.15-.01-.21-.03-.13-.04-.2-.14-.22-.27-.01-.13-.02-.27-.02-.45V2.69c0-.12.02-.21.06-.28.04-.07.11-.12.21-.15.02,0,.04,0,.07-.01.02,0,.04-.01.06-.01h1.54c.11-.01.2.01.28.05.1.04.18.1.23.18.06.08.11.16.16.24l.54.85c.35.57.7,1.14,1.06,1.71.35.56.7,1.13,1.05,1.7.17.27.34.54.51.82.16.27.33.54.51.8.04.06.08.12.12.18.03.06.08.12.14.16.02.02.04.04.07.06.03.02.06.02.09,0,.07-.02.11-.06.11-.13s.01-.15.03-.23c.01-.07.01-.14.01-.23-.01-.08-.01-.17-.01-.25V3.16s0-.1-.01-.15c0-.05,0-.1.01-.14v-.16c0-.14.03-.25.09-.33.05-.07.12-.11.2-.12.09-.01.18-.02.29-.02h1.16c.08,0,.15.01.21.03.13.05.2.14.21.27.01.12.01.27.01.44v9.19c0,.11.01.22.01.33.01.11-.01.2-.05.26Z"/>
    </clipPath>
  </defs>
  <g class="cls-3">
    <path class="cls-1" d="m14.82,2v11.16c0,1.11-.9,2-2,2H2c-1.1,0-2-.89-2-2V2C0,.89.9,0,2,0h10.82c1.1,0,2,.89,2,2Z"/>
  </g>
</svg>